<?xml version="1.0" encoding="UTF-8" standalone="no"?>
<!-- Created with Inkscape (http://www.inkscape.org/) -->

<svg
   width="20.049019mm"
   height="16.106173mm"
   viewBox="0 0 20.049019 16.106173"
   version="1.1"
   id="svg1"
   xml:space="preserve"
   xmlns:xlink="http://www.w3.org/1999/xlink"
   xmlns="http://www.w3.org/2000/svg"
   xmlns:svg="http://www.w3.org/2000/svg"><defs
     id="defs1"><linearGradient
       id="linearGradient46"><stop
         style="stop-color:#455eed;stop-opacity:1;"
         offset="0"
         id="stop46" /><stop
         style="stop-color:#783ced;stop-opacity:1;"
         offset="1"
         id="stop47" /></linearGradient><linearGradient
       xlink:href="#linearGradient46"
       id="linearGradient47"
       x1="-69.672951"
       y1="58.857723"
       x2="-21.783449"
       y2="58.857723"
       gradientUnits="userSpaceOnUse" /></defs><g
     id="layer1"
     transform="translate(-153.13613,-224.39335)"><g
       id="g39"
       transform="translate(121.69337,208.27521)"><g
         id="g47"><path
           style="fill:#f8445c;fill-opacity:1"
           d="m 1.5166041,104.43678 -0.72471603,-0.0914 -0.399763,-0.57074 -0.399764,-0.57075 v -0.86717 -0.86717 l 0.522437,-0.52243 0.52243603,-0.52244 0.670116,-0.16819 0.670116,-0.16819 0.67134,0.43988 0.671341,0.43988 0.253206,0.66598 0.253206,0.66599 -0.15652,0.62362 -0.15652,0.62363 -0.439225,0.37613 -0.439225,0.37613 -0.396875,0.11436 -0.396875,0.11437 z m -10.875973,-2.19763 -0.7527711,-0.20817 -0.363293,-0.47917 -0.363293,-0.47918 -0.0084,-0.81 -0.0084,-0.810009 0.53649,-0.575854 0.5364891,-0.575854 0.656063,-0.164661 0.656063,-0.164661 0.671341,0.439879 0.67134,0.439879 0.276023,0.713767 0.276023,0.713764 -0.240778,0.66146 -1.260921,1.30808 -0.529166,0.19889 z m 21.3071279,0.01 -0.612311,-0.24558 c -0.309086,-0.38508 -0.08629,-0.046 -0.204037,-0.25423 l -0.277859,-0.51919 -0.277858,-0.51918 0.0084,-0.61271 0.0084,-0.612704 0.322315,-0.419803 0.322314,-0.419803 0.577919,-0.307801 0.577918,-0.307801 h 0.496671 0.49667 l 0.575854,0.53649 0.575854,0.536489 0.165467,0.659272 0.165466,0.659271 -0.319541,0.77144 -0.319542,0.77144 -0.808245,0.28176 -0.808246,0.28176 -0.02666,-0.0168 -0.02666,-0.0168 z m -10.1854409,-5.847003 -0.44704,-0.250177 0.0041,-3.492581 0.0041,-3.492582 0.22609,-0.356763 0.22609,-0.356762 0.497463,0.0955 0.497462,0.0955 0.07304,3.86833 0.07304,3.868329 -0.353605,0.135691 -0.353606,0.135691 z m -8.340849,-1.361887 -0.285686,-0.34423 1.721151,-2.896915 1.72115,-2.896916 0.370943,-0.374146 0.370943,-0.374147 0.410154,0.340398 0.410154,0.340397 v 0.21132 0.211319 l -1.336473,2.314165 -1.336472,2.314164 -0.533628,0.749411 -0.533627,0.749411 h -0.346462 -0.346461 z M 8.7813821,94.656487 8.2739531,93.928883 6.9112821,91.605661 5.5486111,89.28244 v -0.224069 -0.22407 l 0.411301,-0.34135 0.411302,-0.34135 0.477139,0.507391 0.477139,0.507391 1.639524,2.74816 1.6395249,2.748161 -0.138411,0.360694 -0.138411,0.360693 H 9.8082651 9.2888111 Z"
           id="path4"
           transform="matrix(0.41865169,0,0,0.41865169,39.56899,-11.536632)" /><a
           id="a4-2"
           transform="matrix(0.4186517,0,0,0.4186517,60.611472,-2.0981889)"
           style="fill:#1c528d;fill-opacity:1"><path
             style="fill:url(#linearGradient47);fill-opacity:1"
             d="m -29.583556,73.608243 -0.68595,-0.595313 -0.78084,-2.703793 -0.78084,-2.703794 -0.236137,-1.000373 -0.236136,-1.000373 -1.089952,-3.701084 -1.089953,-3.701084 v -0.466103 -0.466104 h -4.101041 -4.101042 v 1.969372 1.969372 l -0.588038,0.411878 -0.588038,0.411878 h -5.232795 -5.232795 l -0.529167,-0.529167 -0.529167,-0.529166 v -1.852084 -1.852083 h -5.966264 -5.966264 l -0.764549,-0.395364 -0.76455,-0.395364 -0.412936,-0.589549 -0.412937,-0.589549 v -5.244822 -5.244822 l 0.649432,-0.649431 0.649432,-0.649432 h 18.361161 18.361161 l 1.296178,0.68444 1.296178,0.684441 0.62342,0.57233 0.62342,0.57233 0.791393,1.143432 0.791393,1.143433 0.497513,1.766984 0.497514,1.766985 0.248915,1.719791 0.248915,1.719792 0.700918,3.704167 0.700919,3.704166 0.770617,4.101042 0.770618,4.101042 0.0052,0.880248 0.0052,0.880248 -0.773397,0.773398 -0.773398,0.773397 h -2.783723 -2.783723 z m 5.794106,-1.340469 0.476303,-0.348282 -0.406368,-1.966822 -0.406368,-1.966823 -0.551389,-3.042708 -0.551389,-3.042709 -0.716351,-3.704166 -0.716352,-3.704167 -0.06267,-0.09837 -0.06267,-0.09837 -0.868799,0.868798 -0.868798,0.868798 -1.072543,0.474437 -1.072543,0.474437 -1.077127,0.172239 -1.077126,0.17224 0.88957,3.345396 0.889571,3.345396 0.529757,1.852083 0.529756,1.852084 0.540882,1.957946 0.540882,1.957945 0.261945,0.48945 0.261946,0.48945 h 2.056788 2.056788 z M -44.272947,58.725406 v -1.455208 h -4.630208 -4.630208 v 1.455208 1.455209 h 4.630208 4.630208 z m 13.69823,-3.670384 1.130522,-0.49295 0.919999,-1.074812 0.919999,-1.074811 -0.0062,-1.341438 -0.0062,-1.341438 -0.721424,-1.312828 -0.721423,-1.312827 -1.057204,-0.715292 -1.057204,-0.715293 -0.957868,-0.286984 -0.957868,-0.286984 h -17.180449 -17.180449 l -0.3175,0.3175 -0.3175,0.3175 v 4.445 4.445 l 0.544468,0.544467 0.544467,0.544467 17.645637,-0.08266 17.645636,-0.08266 z"
             id="path4-2" /></a></g></g></g></svg>
