<?xml version="1.0" encoding="UTF-8" standalone="no"?>
<!-- Created with Inkscape (http://www.inkscape.org/) -->

<svg
   width="78.635147mm"
   height="63.614124mm"
   viewBox="0 0 78.635147 63.614124"
   version="1.1"
   id="svg1"
   xml:space="preserve"
   xmlns:xlink="http://www.w3.org/1999/xlink"
   xmlns="http://www.w3.org/2000/svg"
   xmlns:svg="http://www.w3.org/2000/svg"><defs
     id="defs1"><linearGradient
       id="linearGradient44"><stop
         style="stop-color:#455eed;stop-opacity:1;"
         offset="0"
         id="stop44" /><stop
         style="stop-color:#6b45ed;stop-opacity:1;"
         offset="1"
         id="stop45" /></linearGradient><linearGradient
       xlink:href="#linearGradient44"
       id="linearGradient45"
       x1="67.868172"
       y1="248.52731"
       x2="146.50333"
       y2="248.52731"
       gradientUnits="userSpaceOnUse" /></defs><g
     id="layer1"
     transform="translate(-67.868164,-216.72026)"><g
       id="g45"><path
         style="fill:url(#linearGradient45);stroke-width:0.402173"
         d="m 89.4188,279.9584 c -0.647522,-0.64752 -0.538378,-1.61619 0.23341,-2.07155 0.34387,-0.20289 0.552566,-0.21268 4.536218,-0.21268 3.10594,0 4.20848,-0.0327 4.30346,-0.12769 0.0702,-0.0702 0.12769,-0.28724 0.12769,-0.48225 0,-0.19502 0.0718,-0.52647 0.15961,-0.73658 0.0878,-0.2101 0.15962,-0.54529 0.15962,-0.74485 0,-0.19957 0.0679,-0.52549 0.151,-0.72426 0.0831,-0.19878 0.18565,-0.63869 0.22799,-0.97758 0.0423,-0.3389 0.14199,-0.77174 0.22143,-0.96187 0.0794,-0.19013 0.14613,-0.52679 0.1482,-0.74813 0.002,-0.22135 0.0722,-0.52216 0.15585,-0.66847 0.0836,-0.14632 0.15376,-0.44713 0.15584,-0.66848 0.002,-0.22134 0.0712,-0.56376 0.153552,-0.76092 0.0824,-0.19717 0.16618,-0.59067 0.18622,-0.87446 l 0.0364,-0.51597 -15.854851,-0.0532 c -15.425883,-0.0518 -15.863029,-0.0587 -16.157176,-0.25802 -0.16628,-0.11264 -0.345844,-0.31927 -0.399032,-0.45916 -0.107409,-0.28251 -0.135546,-50.14979 -0.02852,-50.54932 0.0359,-0.13403 0.214813,-0.32556 0.397579,-0.42564 0.311508,-0.17056 2.732739,-0.18369 38.69252,-0.20981 29.16253,-0.0212 38.43677,0.002 38.67945,0.097 0.17557,0.0687 0.42697,0.22126 0.55865,0.33904 l 0.23941,0.21414 v 25.2989 25.2989 l -0.39667,0.32698 -0.39667,0.32697 h -15.92563 c -17.83957,0 -16.24227,-0.0806 -15.84139,0.79937 0.11671,0.25622 0.21222,0.60255 0.21222,0.76963 0,0.16709 0.0551,0.35891 0.12248,0.42628 0.0674,0.0674 0.15801,0.32833 0.20141,0.57992 0.0434,0.25159 0.13194,0.61306 0.19674,0.80327 0.0648,0.1902 0.17029,0.50145 0.23442,0.69165 0.0641,0.1902 0.15636,0.53736 0.20495,0.77146 0.0486,0.2341 0.16341,0.56929 0.25516,0.74486 0.0918,0.17557 0.16713,0.42149 0.16749,0.54648 3.6e-4,0.12499 0.0722,0.36441 0.15961,0.53204 0.0874,0.16763 0.16095,0.4245 0.16338,0.57081 0.002,0.14631 0.0729,0.38573 0.1565,0.53204 0.0836,0.14631 0.15377,0.4439 0.15584,0.66131 0.003,0.27934 0.0641,0.4276 0.2096,0.50544 0.13049,0.0698 1.55211,0.11015 3.88429,0.11015 3.4227,0 3.70494,0.0142 4.05924,0.20408 0.44402,0.23798 0.78895,0.8154 0.78895,1.32072 0,0.267 -0.0968,0.45186 -0.39016,0.74525 l -0.39017,0.39016 H 107.06486 89.794776 Z m 24.34165,-2.50748 c 0.0768,-0.12184 0.0556,-0.27266 -0.075,-0.53204 -0.10024,-0.1991 -0.22451,-0.55353 -0.27614,-0.78763 -0.18547,-0.84094 -0.3467,-1.38813 -0.49079,-1.66575 -0.0806,-0.15534 -0.1466,-0.42152 -0.1466,-0.59151 0,-0.16999 -0.0703,-0.40202 -0.15623,-0.51562 -0.0859,-0.11361 -0.15776,-0.31903 -0.15962,-0.45649 -0.002,-0.13747 -0.0704,-0.40083 -0.15222,-0.58525 -0.0819,-0.18442 -0.19719,-0.52684 -0.25628,-0.76094 -0.10245,-0.40583 -0.19081,-0.6872 -0.45949,-1.46311 -0.0659,-0.19021 -0.14247,-0.49756 -0.17025,-0.68301 -0.0278,-0.18544 -0.14333,-0.43683 -0.25682,-0.55864 -0.20171,-0.21652 -0.29293,-0.22147 -4.07849,-0.22147 -3.37669,0 -3.89353,0.0214 -4.03921,0.16705 -0.17798,0.17798 -0.22423,0.3382 -0.32733,1.13397 -0.0358,0.27663 -0.10692,0.52877 -0.15797,0.56032 -0.0511,0.0315 -0.12366,0.33194 -0.16135,0.66754 -0.0377,0.33559 -0.13681,0.7907 -0.22026,1.01135 -0.0834,0.22065 -0.15343,0.57978 -0.1555,0.79806 -0.002,0.21829 -0.0722,0.51659 -0.15584,0.6629 -0.0836,0.14632 -0.15547,0.4815 -0.15962,0.74486 -0.004,0.26336 -0.076,0.59855 -0.15961,0.74486 -0.0836,0.14631 -0.15377,0.41853 -0.15584,0.60492 -0.002,0.1864 -0.0573,0.4737 -0.12273,0.63845 -0.18903,0.47599 -0.29495,1.00435 -0.23347,1.16457 0.0476,0.12391 1.06274,0.14314 6.33802,0.1201 5.62006,-0.0246 6.2927,-0.0453 6.38866,-0.19749 z m 30.05633,-11.56953 c 0.1062,-0.0674 0.1278,-4.79293 0.10641,-23.27521 l -0.0269,-23.1906 -36.49808,-0.029 c -20.073942,-0.016 -36.593843,-0.006 -36.710892,0.022 -0.212106,0.0508 -0.212732,0.12841 -0.187409,23.21905 0.02029,18.50642 0.05241,23.1852 0.159612,23.25325 0.174873,0.11101 72.982369,0.1116 73.157199,4e-4 z"
         id="path3" /><path
         d="m 84.871679,257.20146 c -1.383615,-0.15975 -2.895412,-1.1406 -3.50613,-2.27478 -0.126054,-0.2341 -0.272116,-0.49746 -0.324581,-0.58525 -0.05247,-0.0878 -0.19995,-0.51429 -0.327744,-0.94779 -0.342269,-1.16104 -0.223376,-2.08422 0.469571,-3.64613 0.220254,-0.49645 1.301301,-1.67007 1.720329,-1.86764 0.175574,-0.0828 0.534702,-0.26408 0.798063,-0.40288 0.43691,-0.23026 0.60928,-0.25257 1.968555,-0.25487 1.100109,-0.002 1.559291,0.0372 1.755739,0.14956 0.146311,0.0836 0.417737,0.15377 0.603169,0.15585 0.278153,0.003 0.378799,-0.0661 0.575171,-0.39526 0.130913,-0.21947 0.390676,-0.56663 0.577253,-0.77147 0.186576,-0.20483 0.571308,-0.68367 0.854959,-1.06408 0.283651,-0.38041 0.633665,-0.81136 0.777809,-0.95767 0.144145,-0.14631 0.386436,-0.45789 0.538425,-0.6924 0.151989,-0.23451 0.404545,-0.5697 0.561235,-0.74486 1.010387,-1.12953 1.224699,-1.57998 0.885602,-1.86141 -0.08779,-0.0728 -0.159613,-0.22474 -0.159613,-0.33753 0,-0.11279 -0.08067,-0.35832 -0.179276,-0.54562 -0.249437,-0.47382 -0.247235,-2.33001 0.0033,-2.78793 0.09606,-0.17558 0.174953,-0.4211 0.175313,-0.54562 3.61e-4,-0.12451 0.07248,-0.286 0.160269,-0.35886 0.08779,-0.0728 0.159612,-0.19879 0.159612,-0.27987 0,-0.20308 1.525218,-1.74188 1.726518,-1.74188 0.0895,0 0.22238,-0.0718 0.29524,-0.15962 0.0729,-0.0878 0.23566,-0.15961 0.36178,-0.15961 0.12612,0 0.3448,-0.0809 0.48595,-0.17975 0.39212,-0.27465 2.57413,-0.26914 3.15073,0.008 0.22962,0.11035 0.62612,0.30189 0.88111,0.42564 1.488873,0.72256 2.490193,2.34502 2.660453,4.31076 0.0472,0.54439 0.1174,0.81029 0.22779,0.86229 0.0878,0.0413 0.32721,0.14721 0.53204,0.23524 0.83391,0.35839 1.46836,0.65073 2.04992,0.94453 0.33737,0.17044 0.67867,0.30989 0.75843,0.30989 0.0798,0 0.20464,0.0718 0.2775,0.15961 0.0729,0.0878 0.24045,0.15961 0.37242,0.15961 0.13198,0 0.29958,0.0718 0.37243,0.15962 0.0729,0.0878 0.19318,0.15961 0.26738,0.15961 0.0742,0 0.47402,0.16759 0.88849,0.37243 0.41447,0.20483 0.811,0.37243 0.88117,0.37243 0.0702,0 0.21836,0.0822 0.32932,0.18257 0.19299,0.17466 0.21956,0.16327 0.61278,-0.26258 0.66311,-0.71814 1.65295,-1.30538 2.76634,-1.64117 0.58445,-0.17626 2.77095,-0.0653 3.0879,0.15667 0.14228,0.0997 0.35577,0.18272 0.47443,0.18458 0.11866,0.002 0.30869,0.0737 0.4223,0.15961 0.3757,0.28417 0.69906,0.18666 1.33448,-0.40241 0.33143,-0.30725 0.91037,-0.81604 1.28652,-1.13064 0.37616,-0.31459 1.10006,-0.96877 1.60867,-1.45372 0.50861,-0.48495 1.50034,-1.38688 2.20384,-2.00428 1.5096,-1.32484 1.71299,-1.52209 1.71299,-1.66125 0,-0.0576 -0.13859,-0.33298 -0.30797,-0.61185 -0.16939,-0.27888 -0.34067,-0.66211 -0.38062,-0.85165 -0.0399,-0.18953 -0.11684,-0.37192 -0.17086,-0.40531 -0.17138,-0.10592 -0.12084,-2.42496 0.058,-2.66142 0.0859,-0.1136 0.15776,-0.31172 0.15962,-0.44027 0.005,-0.32006 0.70405,-1.49189 1.16682,-1.95492 0.48937,-0.48965 1.31555,-0.9843 1.9224,-1.15098 1.13578,-0.31196 1.35812,-0.34748 1.86407,-0.29788 0.5875,0.0576 1.49518,0.31524 2.07304,0.58841 0.4293,0.20295 1.70254,1.16541 1.70254,1.28698 0,0.0449 0.10774,0.20214 0.23942,0.34933 0.26536,0.29663 0.61184,0.89396 0.61184,1.05482 0,0.057 0.10099,0.32529 0.22441,0.59622 0.19271,0.42302 0.21761,0.63638 0.17628,1.51048 -0.0316,0.66743 -0.10859,1.12779 -0.22375,1.33711 -0.0966,0.17557 -0.17592,0.37697 -0.17628,0.44755 -0.001,0.22544 -0.64135,1.22425 -1.07909,1.68356 -0.23284,0.2443 -0.62414,0.5489 -0.86955,0.67687 -0.24541,0.12797 -0.51803,0.27294 -0.60582,0.32216 -0.63675,0.35701 -1.01771,0.43454 -2.13519,0.43454 -0.79955,0 -1.29132,-0.0506 -1.55231,-0.15961 -0.55407,-0.23151 -0.83658,-0.1979 -1.11802,0.133 -0.13688,0.16095 -0.82348,0.79391 -1.52577,1.40658 -0.7023,0.61267 -1.70786,1.52794 -2.23458,2.03393 -0.52672,0.50599 -1.36469,1.26926 -1.86215,1.69616 -0.49746,0.42689 -1.1798,1.04241 -1.51631,1.3678 -0.53543,0.51774 -0.61185,0.64255 -0.61185,0.99928 0,0.2242 0.0753,0.55333 0.1674,0.73138 0.19867,0.38417 0.16654,1.73256 -0.0554,2.32591 -0.52554,1.40497 -1.21449,2.34592 -2.1501,2.93654 -1.00159,0.63228 -2.50731,0.92506 -3.78776,0.73652 -0.45357,-0.0668 -0.92043,-0.1713 -1.03748,-0.23226 -0.11706,-0.061 -0.4011,-0.20167 -0.63122,-0.3127 -0.64882,-0.31305 -1.671,-1.38901 -1.96106,-2.06427 -0.13821,-0.32175 -0.31778,-0.74224 -0.39903,-0.93443 -0.0813,-0.19219 -0.14848,-0.64709 -0.14937,-1.01088 -0.002,-0.76578 -0.0559,-0.88443 -0.44731,-0.98267 -0.15795,-0.0397 -0.3429,-0.13921 -0.41099,-0.22126 -0.0681,-0.082 -0.20785,-0.14917 -0.31056,-0.14917 -0.10272,0 -0.24637,-0.0718 -0.31923,-0.15961 -0.0729,-0.0878 -0.21651,-0.15961 -0.31922,-0.15961 -0.10272,0 -0.24637,-0.0718 -0.31923,-0.15961 -0.0729,-0.0878 -0.21954,-0.15962 -0.32597,-0.15962 -0.10643,0 -0.22432,-0.0498 -0.26198,-0.11079 -0.0377,-0.0609 -0.3637,-0.25445 -0.72454,-0.43004 -0.6447,-0.31372 -0.84369,-0.41698 -1.21471,-0.63034 -0.10242,-0.0589 -0.25804,-0.13408 -0.34583,-0.16707 -0.0878,-0.033 -0.48263,-0.22423 -0.87744,-0.42496 -0.39481,-0.20073 -0.82576,-0.3644 -0.95768,-0.36371 -0.13524,8.1e-4 -0.44867,0.1991 -0.71868,0.45489 -0.74563,0.70637 -1.575463,1.19509 -2.228613,1.31251 -0.20811,0.0374 -0.42628,0.10519 -0.4848,0.15061 -0.2418,0.18764 -1.07072,0.22257 -1.54292,0.065 -0.26336,-0.0879 -0.70475,-0.19242 -0.98085,-0.23232 -0.27611,-0.0399 -0.5573,-0.13918 -0.62488,-0.2206 -0.33288,-0.40111 -0.89495,0.0139 -1.961393,1.44808 -0.282863,0.38041 -0.598703,0.77467 -0.701867,0.87615 -0.103164,0.10147 -0.342431,0.41271 -0.531703,0.69165 -0.189273,0.27894 -0.454527,0.62049 -0.589455,0.75901 -0.134927,0.13851 -0.341867,0.37793 -0.459866,0.53203 -1.032152,1.34803 -1.123179,1.55533 -0.800509,1.82313 0.08779,0.0729 0.159612,0.23566 0.159612,0.36178 0,0.12612 0.0838,0.34771 0.186215,0.49241 0.267276,0.37762 0.260617,3.13078 -0.0085,3.515 -0.09774,0.13955 -0.177714,0.31777 -0.177714,0.39604 0,0.12582 -0.343923,0.63885 -0.927152,1.38304 -0.167978,0.21434 -1.074402,0.85931 -1.360628,0.96816 -0.05852,0.0222 -0.297944,0.12448 -0.532042,0.22717 -0.47352,0.20771 -1.881255,0.30675 -2.819822,0.19839 z m 1.868411,-2.59062 c 0.113604,-0.0859 0.277212,-0.15775 0.363574,-0.15961 0.168921,-0.004 0.959446,-0.83818 0.960775,-1.01427 4.42e-4,-0.0585 0.06746,-0.23417 0.148938,-0.39033 0.259633,-0.49764 0.31161,-1.11283 0.125533,-1.48583 -0.09271,-0.18585 -0.168571,-0.40071 -0.168571,-0.47747 0,-0.20891 -0.624504,-0.8795 -1.112786,-1.19491 -0.365099,-0.23583 -0.550803,-0.27817 -1.228198,-0.28 -0.731189,-0.002 -0.843614,0.0281 -1.341661,0.35871 -0.298978,0.19848 -0.694019,0.59065 -0.877869,0.87149 -0.311187,0.47534 -0.334271,0.57571 -0.334271,1.45343 v 0.94282 l 0.540553,0.60648 c 0.297304,0.33357 0.602685,0.60649 0.678625,0.60649 0.07594,0 0.197682,0.0718 0.270539,0.15961 0.183517,0.22113 1.683541,0.2237 1.974819,0.003 z m 28.16208,-6.56658 c 0.40432,-0.20583 0.89448,-0.64384 1.35242,-1.20852 0.10681,-0.13171 0.1543,-0.49141 0.15961,-1.20908 0.007,-0.96593 -0.01,-1.04745 -0.31279,-1.49606 -0.62106,-0.91982 -1.5067,-1.27433 -2.78465,-1.11466 -0.50403,0.063 -0.64381,0.13927 -1.155,0.63044 -0.31987,0.30734 -0.58158,0.59366 -0.58158,0.63625 0,0.0426 -0.0764,0.23839 -0.1697,0.43509 -0.31325,0.66013 -0.0601,1.92681 0.53372,2.67109 0.66751,0.83656 2.01549,1.13526 2.95797,0.65545 z M 98.491947,241.2 c 0.0729,-0.0878 0.20936,-0.15962 0.30333,-0.15962 0.28859,0 0.94487,-0.82296 1.13283,-1.42056 0.299333,-0.95164 -0.0435,-2.2258 -0.78442,-2.91558 -0.14145,-0.13168 -0.31615,-0.23942 -0.38822,-0.23942 -0.0721,0 -0.19066,-0.0718 -0.26352,-0.15961 -0.1811,-0.21822 -1.47467,-0.2207 -1.762,-0.003 -0.1136,0.0859 -0.28633,0.15775 -0.38384,0.15961 -0.0975,0.002 -0.4387,0.29226 -0.75821,0.64533 -0.4881,0.53937 -0.59214,0.72641 -0.65105,1.17049 -0.14836,1.11842 0.13036,2.046 0.75969,2.52818 0.16215,0.12424 0.39059,0.29823 0.50763,0.38665 0.30236,0.22838 2.09965,0.2346 2.28778,0.008 z m 31.393523,-7.40598 c 0.44057,-0.0945 0.65395,-0.22539 1.10877,-0.68021 0.55699,-0.55699 0.62673,-0.70994 0.76833,-1.68505 0.18804,-1.29504 -1.04012,-2.63475 -2.57179,-2.80537 -0.53099,-0.0591 -1.27645,0.25515 -1.79146,0.75528 -0.66413,0.64497 -0.74332,0.84113 -0.74955,1.85672 -0.007,1.12361 0.16676,1.49141 1.08084,2.28915 0.41353,0.3609 1.24422,0.46478 2.15486,0.26948 z"
         style="fill:#800000;stroke-width:0.402173"
         id="path1-38" /></g></g></svg>
