<?xml version="1.0" encoding="UTF-8" standalone="no"?>
<!-- Created with Inkscape (http://www.inkscape.org/) -->

<svg
   width="26.207554mm"
   height="29.652454mm"
   viewBox="0 0 26.207554 29.652454"
   version="1.1"
   id="svg1"
   xml:space="preserve"
   xmlns:xlink="http://www.w3.org/1999/xlink"
   xmlns="http://www.w3.org/2000/svg"
   xmlns:svg="http://www.w3.org/2000/svg"><defs
     id="defs1"><linearGradient
       id="linearGradient58"><stop
         style="stop-color:#495cee;stop-opacity:1;"
         offset="0"
         id="stop57" /><stop
         style="stop-color:#783ced;stop-opacity:1;"
         offset="1"
         id="stop58" /></linearGradient><linearGradient
       id="linearGradient51"><stop
         style="stop-color:#000000;stop-opacity:1;"
         offset="0"
         id="stop51" /><stop
         style="stop-color:#783ced;stop-opacity:1;"
         offset="1"
         id="stop52" /></linearGradient><linearGradient
       xlink:href="#linearGradient51"
       id="linearGradient52"
       x1="67.250313"
       y1="166.07121"
       x2="93.457855"
       y2="166.07121"
       gradientUnits="userSpaceOnUse" /><linearGradient
       xlink:href="#linearGradient58"
       id="linearGradient57"
       gradientUnits="userSpaceOnUse"
       x1="67.250313"
       y1="166.07121"
       x2="93.457855"
       y2="166.07121"
       gradientTransform="translate(-0.80587455,0.23754319)" /></defs><g
     id="layer1"
     transform="translate(-67.250304,-151.24499)"><g
       id="g58"><path
         style="fill:url(#linearGradient52)"
         d="m 67.909996,180.52197 c -0.495355,-0.36209 -0.516184,-0.86489 -0.586636,-14.16033 l -0.07305,-13.78492 0.665873,-0.66587 0.665873,-0.66587 9.559552,0.0757 9.559551,0.0757 1.309342,1.45521 c 0.720138,0.80037 2.015395,2.26194 2.878349,3.24794 l 1.569008,1.79273 v 10.80544 c 0,10.53095 -0.01393,10.82316 -0.54837,11.50259 l -0.54837,0.69714 H 80.392354 c -9.917275,0 -12.056799,-0.0643 -12.482358,-0.37543 z m 24.22495,-11.30866 0.132292,-10.49347 -2.305948,-0.0899 c -3.087143,-0.12031 -3.222094,-0.26333 -3.342105,-3.54191 l -0.0918,-2.50797 -9.036322,0.0696 -9.036321,0.0696 -0.06864,13.19906 c -0.04984,9.58479 0.01399,13.29861 0.233122,13.56265 0.249147,0.3002 2.313866,0.35158 11.842594,0.29469 l 11.540837,-0.0689 z m -1.562955,-12.85602 c -0.447522,-0.5457 -1.229661,-1.46844 -1.738088,-2.05052 l -0.924412,-1.05833 -0.0039,2.05052 -0.0039,2.05052 h 1.742019 1.742024 z"
         id="path50" /><path
         d="m 70.809616,175.02646 c -0.413405,-0.6689 0.549185,-0.77826 6.246904,-0.70973 5.405535,0.065 5.939128,0.11237 6.020258,0.53435 0.0827,0.43014 -0.343429,0.46302 -6.000191,0.46302 -4.099426,0 -6.147292,-0.094 -6.266971,-0.28764 z m 0.05835,-4.65125 c -0.09701,-0.097 -0.176389,-0.33514 -0.176389,-0.52916 0,-0.28682 1.624248,-0.35278 8.687152,-0.35278 4.777939,0 8.758329,0.0712 8.845309,0.15816 0.087,0.087 0.0941,0.32511 0.0158,0.52916 -0.11806,0.30767 -1.59805,0.37101 -8.66892,0.37101 -4.689604,0 -8.605928,-0.0794 -8.702942,-0.17639 z m -0.1261,-5.31371 c 0.08233,-0.42789 0.73999,-0.46833 8.666584,-0.5329 8.492648,-0.0692 9.326918,0.005 8.844848,0.78485 -0.0718,0.11609 -4.06122,0.21107 -8.865487,0.21107 -8.176631,0 -8.72934,-0.0296 -8.645945,-0.46302 z m 0.04048,-4.70916 c -0.08857,-0.2308 -0.04764,-0.53304 0.09096,-0.67163 0.148984,-0.14898 2.677889,-0.22283 6.186694,-0.18065 5.734538,0.0689 5.934708,0.0892 5.934708,0.6005 0,0.51159 -0.2001,0.53153 -6.025663,0.6003 -5.299657,0.0626 -6.045065,0.0206 -6.186695,-0.34852 z"
         style="fill:url(#linearGradient57)"
         id="path1-4" /></g></g></svg>
