<?xml version="1.0" encoding="UTF-8" standalone="no"?>
<!-- Created with Inkscape (http://www.inkscape.org/) -->

<svg
   width="61.341763mm"
   height="58.388779mm"
   viewBox="0 0 61.341763 58.388779"
   version="1.1"
   id="svg1"
   xml:space="preserve"
   xmlns:xlink="http://www.w3.org/1999/xlink"
   xmlns="http://www.w3.org/2000/svg"
   xmlns:svg="http://www.w3.org/2000/svg"><defs
     id="defs1"><linearGradient
       id="linearGradient48"><stop
         style="stop-color:#6a45ed;stop-opacity:1;"
         offset="0"
         id="stop48" /><stop
         style="stop-color:#465eed;stop-opacity:1;"
         offset="1"
         id="stop49" /></linearGradient><linearGradient
       xlink:href="#linearGradient48"
       id="linearGradient50"
       gradientUnits="userSpaceOnUse"
       x1="-18.362734"
       y1="257.38678"
       x2="42.979031"
       y2="257.38678"
       gradientTransform="translate(14.658566,-0.12154667)" /></defs><g
     id="layer1"
     transform="translate(3.7041666,-228.07084)"><path
       style="fill:#550000;stroke-width:1.07696"
       d="m 48.666637,270.51575 c 0.228301,-0.19694 0.63388,-0.5566 0.901287,-0.79925 l 0.486193,-0.44117 -2.264443,-2.69951 c -1.245442,-1.48473 -2.387272,-2.86659 -2.537397,-3.07081 -0.323216,-0.43965 -0.346057,-1.07354 -0.05041,-1.3988 0.109752,-0.12074 0.950474,-0.60788 1.868272,-1.08254 0.917797,-0.47467 1.703467,-0.89743 1.745933,-0.93946 0.04246,-0.042 -2.811856,-1.30858 -6.342936,-2.81453 -3.531082,-1.50594 -6.435541,-2.7016 -6.454354,-2.65701 -0.0323,0.0766 1.038348,4.59235 2.608028,11.00003 0.825692,2.48263 0.101314,3.96138 1.940521,1.26313 0.59715,-0.8809 1.187172,-1.67295 1.31116,-1.76012 0.230266,-0.16189 0.819553,-0.21058 1.127019,-0.093 0.09412,0.036 1.294057,1.36673 2.666523,2.95727 1.372466,1.59055 2.514317,2.89237 2.537448,2.89292 0.02313,5.5e-4 0.228848,-0.16012 0.457149,-0.35704 z m -12.213633,-4.00814 c 0,-0.13572 2e-6,0.0234 2e-6,-2e-5 z"
       id="path47" /><path
       style="fill:url(#linearGradient50)"
       d="m 12.392658,286.20602 c -0.344288,-0.34428 -0.408941,-0.79792 -0.346312,-2.42985 0.03713,-0.96758 0.107368,-1.51741 0.229677,-1.79802 0.263035,-0.60346 0.94883,-1.28717 1.572768,-1.56798 0.502339,-0.22609 0.729513,-0.25239 2.459399,-0.28475 l 1.905938,-0.0356 0.519681,-2.34788 c 0.285824,-1.29133 0.541063,-2.40744 0.567197,-2.48024 0.03777,-0.10521 -1.805802,-0.13264 -8.990436,-0.13377 l -9.037953,-10e-4 -0.865718,-0.30136 c -1.5554,-0.54144 -2.826608,-1.67432 -3.520076,-3.13705 -0.620553,-1.30892 -0.590761,-0.39049 -0.590761,-18.21207 V 237.0644 l 0.307158,-0.93715 c 0.57518,-1.75492 1.906982,-3.17727 3.604251,-3.84931 l 0.747494,-0.29597 8.8413266,-0.0529 8.8413274,-0.0529 3.864772,-1.90149 c 3.253595,-1.6008 3.940122,-1.90187 4.34125,-1.90384 0.400419,-0.002 1.128647,0.30579 4.561968,1.92797 l 4.085488,1.9303 8.3559,0.002 c 6.841901,0.002 8.485538,0.0293 9.071387,0.15346 1.925481,0.40803 3.630149,1.95009 4.317465,3.90563 0.117015,0.33293 0.261467,1.09206 0.321006,1.68696 0.07023,0.70177 0.09563,6.56661 0.07232,16.69955 -0.03369,14.64408 -0.04776,15.65753 -0.225624,16.25322 -0.662922,2.22021 -2.383734,3.91263 -4.459466,4.38588 -0.368902,0.0841 -3.218097,0.12774 -9.397156,0.14392 -7.510695,0.0197 -8.867746,0.0459 -8.867799,0.17116 -5.5e-5,0.13005 0.886333,4.12349 1.016616,4.58016 0.04347,0.15237 0.293301,0.18032 1.9255,0.21547 2.22802,0.048 2.676755,0.18585 3.467478,1.06533 0.68569,0.76265 0.814304,1.29814 0.771791,3.21342 -0.03423,1.54232 -0.03455,1.54401 -0.331352,1.79906 l -0.297086,0.25528 H 26.938808 12.645538 Z m 27.36885,-2.54714 c 0,-0.68058 -0.0349,-0.8288 -0.255542,-1.08531 l -0.255543,-0.29709 H 26.961635 14.672846 l -0.240498,0.2405 c -0.201257,0.20125 -0.246759,0.37834 -0.278864,1.08531 l -0.03836,0.84482 h 12.823195 12.823194 z m -6.247165,-3.64642 c 0,-0.0514 -0.238239,-1.14352 -0.529421,-2.427 -0.291181,-1.28349 -0.52942,-2.36118 -0.52942,-2.39488 0,-0.0337 -2.47769,-0.0613 -5.505977,-0.0613 -3.028286,0 -5.505976,0.0323 -5.505976,0.0719 0,0.0395 -0.238239,1.13155 -0.529421,2.42673 -0.291181,1.29518 -0.52942,2.38257 -0.52942,2.41642 0,0.0339 2.954168,0.0616 6.564817,0.0616 3.720803,0 6.564818,-0.0405 6.564818,-0.0934 z m 19.406933,-7.20444 c 0.860877,-0.33437 1.758392,-1.18922 2.14501,-2.04305 0.24187,-0.53416 0.310068,-0.85807 0.346264,-1.6446 l 0.04507,-0.97943 h -1.869328 c -1.854269,0 -1.868388,0.002 -1.752669,0.21798 0.264391,0.49402 0.04611,0.79017 -1.774679,2.40773 -0.963765,0.8562 -1.876699,1.63979 -2.028743,1.74132 -0.35487,0.23697 -0.881866,0.23729 -1.155668,7e-4 -0.195207,-0.16868 -2.197654,-2.4698 -3.779677,-4.34342 -0.349417,-0.41383 -0.659128,-0.75418 -0.688247,-0.75633 -0.02912,-0.002 -0.529302,0.65005 -1.11152,1.44936 -1.37625,1.88941 -1.68492,2.22611 -2.114699,2.30674 -0.43921,0.0824 -0.953057,-0.1696 -1.150174,-0.56406 -0.07954,-0.15916 -0.279083,-0.77778 -0.443437,-1.3747 l -0.298823,-1.08532 H 17.868101 -1.553755 l 0.03786,0.97943 c 0.03035,0.78499 0.09356,1.09873 0.318387,1.58034 0.519158,1.11208 1.488003,1.94707 2.584655,2.22755 0.42776,0.1094 5.5050896,0.13446 25.727284,0.12698 l 25.194347,-0.009 z m -4.914782,-3.09437 c 0.211515,-0.18327 0.587274,-0.51797 0.835019,-0.74378 l 0.450446,-0.41056 -2.097949,-2.51216 c -1.153871,-1.38169 -2.211747,-2.66765 -2.350835,-2.85769 -0.299451,-0.40914 -0.320613,-0.99905 -0.0467,-1.30173 0.101682,-0.11236 0.88059,-0.56569 1.730906,-1.00742 0.850316,-0.44172 1.578219,-0.83514 1.617563,-0.87426 0.03934,-0.0391 -2.605113,-1.21776 -5.87657,-2.6192 -3.271458,-1.40143 -5.962366,-2.51411 -5.979796,-2.47261 -0.02993,0.0713 0.962003,4.27364 2.416272,10.23663 0.358467,1.46983 0.6833,2.67097 0.721851,2.66919 0.03855,-0.002 0.522748,-0.67396 1.075993,-1.49372 0.553244,-0.81976 1.099885,-1.55685 1.214756,-1.63797 0.213337,-0.15065 0.759296,-0.19596 1.044155,-0.0866 0.0872,0.0335 1.198911,1.27188 2.470466,2.75204 1.271555,1.48016 2.329452,2.69163 2.350882,2.69215 0.02143,5.2e-4 0.212022,-0.149 0.423537,-0.33226 z m -11.315626,-3.72998 c 0,-0.12629 -1.789631,-7.39719 -1.830865,-7.43843 -0.02752,-0.0275 -1.773294,0.80994 -3.879494,1.86102 -2.1062,1.05108 -3.921302,1.91106 -4.03356,1.91106 -0.112259,0 -3.729591,-1.76224 -8.038517,-3.91609 -6.777548,-3.38781 -7.856554,-3.95891 -7.998561,-4.23352 -0.145152,-0.28069 -0.160883,-1.3529 -0.135915,-9.26358 l 0.02824,-8.94614 0.22581,-0.22578 c 0.124195,-0.12418 0.886561,-0.55124 1.694147,-0.94901 l 1.468337,-0.72322 -6.4589344,0.0196 -6.4589336,0.0196 -0.610491,0.30917 c -0.727036,0.3682 -1.578512,1.23324 -1.90617,1.93655 l -0.236327,0.50727 -0.02794,14.58554 -0.02794,14.58554 h 19.113558 c 10.512457,0 19.113558,-0.0178 19.113558,-0.0396 z m 18.716497,-14.49301 -0.02794,-14.5326 -0.281695,-0.60091 c -0.394318,-0.84115 -1.045034,-1.50587 -1.873545,-1.91385 l -0.698821,-0.34411 -6.355455,-0.0203 -6.355454,-0.0203 0.52942,0.25367 c 0.291182,0.13951 0.943119,0.45105 1.448749,0.6923 1.464327,0.69867 1.299916,-0.53125 1.33245,9.9677 l 0.02821,9.1038 -0.361746,0.36175 c -0.19896,0.19896 -0.437982,0.36174 -0.53116,0.36174 -0.404972,0 -0.0924,0.21245 0.968839,0.6585 4.404936,1.85143 8.167066,3.53155 8.388913,3.74639 0.328679,0.31829 0.360761,0.97538 0.06365,1.30368 -0.109259,0.12073 -1.03731,0.65533 -2.062335,1.18799 -1.025024,0.53267 -1.944702,1.02421 -2.043728,1.09232 -0.159504,0.10971 -0.03368,0.30132 1.102777,1.67934 l 1.282823,1.5555 h 2.736998 2.736997 z m -29.567231,-6.94027 c -0.02883,-0.0755 -1.446774,-0.82011 -3.150987,-1.65476 -1.704214,-0.83465 -4.61139,-2.25936 -6.460392,-3.16603 l -3.361822,-1.64848 v 7.44644 7.44644 l 6.485404,3.22421 6.485405,3.2242 0.0274,-7.3674 c 0.01507,-4.05207 0.0038,-7.42915 -0.02501,-7.50462 z m 8.521282,11.61992 c 0,-0.061 -0.166767,-0.77315 -0.370594,-1.58254 -0.367215,-1.45818 -0.431933,-1.94051 -0.304821,-2.27176 0.07825,-0.20392 0.580587,-0.48123 0.871743,-0.48123 0.113764,0 1.14981,0.40643 2.302324,0.90316 1.152514,0.49674 2.196317,0.92847 2.319562,0.9594 0.142881,0.0359 0.519128,-0.1029 1.038286,-0.38293 l 0.814202,-0.43918 v -7.35751 c 0,-6.30965 -0.02147,-7.35264 -0.150722,-7.32328 -0.0829,0.0188 -3.013242,1.43577 -6.511876,3.14876 l -6.361153,3.11452 v 7.5007 7.50071 l 3.176525,-1.58895 c 1.747088,-0.87392 3.176524,-1.63886 3.176524,-1.69987 z m 0.628313,-17.5181 c 2.502114,-1.22296 4.551336,-2.24739 4.553828,-2.27651 0.0025,-0.0291 -0.126129,-0.11269 -0.285824,-0.18571 -0.159696,-0.073 -2.963135,-1.41908 -6.229866,-2.99123 -3.26673,-1.57215 -6.001008,-2.85846 -6.076172,-2.85846 -0.171808,0 -2.880246,1.29573 -8.314076,3.9775 l -4.235366,2.09029 6.247165,3.08914 6.247165,3.08914 1.771924,-0.8553 c 0.974559,-0.47041 3.819108,-1.8559 6.321222,-3.07886 z"
       id="path47-6" /></g></svg>
