<?xml version="1.0" encoding="UTF-8" standalone="no"?>
<!-- Created with Inkscape (http://www.inkscape.org/) -->

<svg
   width="38.017956mm"
   height="30.892235mm"
   viewBox="0 0 38.017956 30.892235"
   version="1.1"
   id="svg1"
   xml:space="preserve"
   xmlns:xlink="http://www.w3.org/1999/xlink"
   xmlns="http://www.w3.org/2000/svg"
   xmlns:svg="http://www.w3.org/2000/svg"><defs
     id="defs1"><linearGradient
       id="linearGradient55"><stop
         style="stop-color:#693512;stop-opacity:1;"
         offset="0"
         id="stop55" /><stop
         style="stop-color:#d45500;stop-opacity:0;"
         offset="1"
         id="stop56" /></linearGradient><linearGradient
       id="linearGradient54"><stop
         style="stop-color:#5f36ab;stop-opacity:1;"
         offset="0"
         id="stop53" /><stop
         style="stop-color:#263379;stop-opacity:1;"
         offset="1"
         id="stop54" /></linearGradient><linearGradient
       xlink:href="#linearGradient54"
       id="linearGradient41"
       gradientUnits="userSpaceOnUse"
       x1="108.69053"
       y1="153.12234"
       x2="129.63918"
       y2="153.12234"
       gradientTransform="matrix(1.8148007,0,0,1.8148007,-82.298293,-96.542834)" /><linearGradient
       xlink:href="#linearGradient55"
       id="linearGradient56"
       x1="119.59288"
       y1="177.67281"
       x2="147.19376"
       y2="177.67281"
       gradientUnits="userSpaceOnUse" /></defs><g
     id="layer1"
     transform="translate(-114.95334,-165.89767)"><path
       style="fill:url(#linearGradient41);stroke-width:0.608731"
       d="m 125.6178,196.62633 c -0.25545,-0.25543 -0.24817,-0.69089 0.0145,-0.90951 0.1156,-0.0958 0.8894,-0.19534 1.71974,-0.22104 l 1.5097,-0.0468 0.36758,-1.69112 c 0.20217,-0.93014 0.3705,-1.7455 0.37405,-1.81194 0.004,-0.0664 -2.88192,-0.12086 -6.41214,-0.12086 -6.39418,0 -6.42068,-0.001 -6.96586,-0.36369 -0.301,-0.20002 -0.71035,-0.68648 -0.90965,-1.08102 l -0.36238,-0.71734 0.004,-10.71665 c 0.004,-10.05374 0.0218,-10.75649 0.29937,-11.36089 0.35189,-0.76628 0.71106,-1.10968 1.50973,-1.4434 0.52078,-0.21758 2.61685,-0.2473 17.22756,-0.24418 15.8986,0.004 16.66399,0.0163 17.29759,0.30458 0.36461,0.16551 0.87196,0.57505 1.12743,0.90992 l 0.46448,0.60887 0.0439,10.96473 0.0439,10.96476 -0.3661,0.72347 c -0.20136,0.39789 -0.61235,0.88713 -0.91336,1.08715 -0.54602,0.36285 -0.56248,0.36369 -7.20744,0.36369 -3.6631,0 -6.66025,0.0544 -6.66032,0.12086 -7e-5,0.0664 0.15444,0.89715 0.34349,1.84602 l 0.34359,1.72524 1.29042,0.0465 c 1.02057,0.0367 1.32747,0.10544 1.46763,0.3283 0.12903,0.20512 0.12885,0.35856 -5.5e-4,0.56369 -0.1646,0.26101 -0.74329,0.28496 -7.81711,0.32367 -5.80754,0.0318 -7.68608,-0.005 -7.83417,-0.15299 z m 11.63997,-1.62018 c -0.0541,-0.2879 -0.22055,-1.10327 -0.37004,-1.81194 l -0.27176,-1.28849 -2.80623,-0.0441 c -1.54342,-0.0243 -2.86428,0.0145 -2.93524,0.0848 -0.1127,0.1127 -0.78077,3.05627 -0.78077,3.4399 0,0.0795 1.61719,0.14337 3.63115,0.14337 h 3.63116 z m 13.9225,-4.72534 c 0.44092,-0.371 0.49555,-0.51303 0.49555,-1.28848 v -0.87152 h -17.71665 -17.71663 v 0.8177 c 0,0.689 0.074,0.89177 0.4708,1.28849 l 0.47079,0.47077 h 16.7503 16.75031 z m 0.50896,-3.35443 c 0.0368,-0.0368 0.0309,-4.31931 -0.0127,-9.51659 l -0.0806,-9.44958 -0.45189,-0.38862 -0.4519,-0.38861 H 133.9385 117.18482 l -0.4708,0.47078 -0.47079,0.4708 v 9.43442 9.43441 h 17.68979 c 9.72938,0 17.71998,-0.0301 17.7569,-0.067 z"
       id="path2-3" /><path
       d="m 126.82808,184.68648 c -0.76769,-0.13556 -1.29317,-0.42609 -1.77166,-0.97948 l -0.40265,-0.4657 -0.88584,0.23843 c -1.92519,0.5182 -2.81938,0.16079 -3.62269,-1.44777 -0.36758,-0.73609 -0.49589,-1.23957 -0.54037,-2.12062 -0.10943,-2.16792 0.51958,-3.05385 2.32757,-3.27807 1.11175,-0.13793 1.51338,-0.39339 1.51338,-0.96284 0,-0.35318 0.74492,-1.46741 1.2137,-1.81546 0.43919,-0.32604 0.53161,-0.3455 9.25522,-1.948 9.42906,-1.7321 10.55962,-1.74136 11.96642,-0.0978 0.97607,1.14035 1.30123,2.19674 1.3119,4.26249 0.007,1.58932 -0.0328,1.85311 -0.39815,2.56305 -0.50163,0.97471 -0.97469,1.33861 -1.98214,1.52472 -0.5088,0.094 -0.95557,0.31113 -1.28849,0.6262 -0.62062,0.5873 -0.83242,0.65307 -4.77773,1.48347 -1.72738,0.36358 -4.88012,1.0606 -7.00613,1.54895 -4.62518,1.0624 -4.2199,0.99075 -4.91234,0.86847 z m 1.60683,-1.42004 c 0.68939,-0.51377 1.01484,-1.25869 1.09489,-2.50617 0.0875,-1.36206 -0.13738,-2.58137 -0.70119,-3.80282 -0.7626,-1.65216 -2.16152,-2.6529 -3.17163,-2.26885 -0.69633,0.26474 -1.42705,1.46355 -0.89211,1.46355 0.10544,0 0.62243,-0.0889 1.14895,-0.19772 l 0.95731,-0.19775 0.53949,0.6241 c 1.00418,1.16167 1.51145,3.13104 1.19686,4.64649 -0.21992,1.05929 -0.44171,1.28095 -1.66187,1.6609 -0.97547,0.30376 -1.07302,0.49524 -0.42693,0.83806 0.48834,0.25912 1.38266,0.13792 1.91623,-0.25979 z m 3.65973,-0.68445 c 0.95676,-0.1841 2.2469,-0.46711 2.86698,-0.62894 0.6201,-0.16188 2.54074,-0.59977 4.26811,-0.97321 2.29125,-0.49533 3.24005,-0.76971 3.5081,-1.01447 0.91534,-0.83584 1.10037,-3.846 0.35681,-5.80469 -0.39861,-1.05007 -1.31926,-2.08819 -2.00438,-2.26014 -0.4122,-0.10344 -2.56328,0.25671 -10.06093,1.68452 -1.36551,0.26004 -2.51199,0.50203 -2.54773,0.53776 -0.0357,0.0358 0.19778,0.40915 0.51889,0.82982 0.76719,1.00509 1.15843,1.7916 1.45222,2.91958 0.31139,1.19548 0.31099,3.35553 -7.9e-4,4.23917 -0.2642,0.74884 -0.27607,0.8053 -0.16914,0.8053 0.0397,0 0.85517,-0.15063 1.81193,-0.3347 z m -8.87511,-0.32737 c 0.44755,-0.49588 0.40019,-2.19677 -0.0927,-3.3306 -0.39144,-0.90038 -0.69469,-1.16127 -1.34983,-1.16127 -1.32522,0 -1.48502,3.12931 -0.2281,4.46724 0.44486,0.47353 1.25475,0.48548 1.67066,0.0247 z m 4.15029,-0.99459 c 0.58607,-0.69632 0.0771,-3.74007 -0.70645,-4.22431 -0.25035,-0.1548 -2.52217,0.09 -2.80856,0.30253 -0.21832,0.16206 -0.20043,0.31497 0.15661,1.33787 0.2217,0.63521 0.44494,1.61366 0.49608,2.17431 0.0512,0.56065 0.11941,1.10636 0.15172,1.21269 0.0922,0.3032 2.33995,-0.36276 2.71056,-0.80309 z m 18.05686,-2.59293 c 0.53664,-0.53664 0.77684,-1.57804 0.69151,-2.99812 -0.13012,-2.16488 -1.1643,-3.79802 -2.52036,-3.9799 -0.36505,-0.049 -0.66372,-0.0385 -0.66372,0.0234 0,0.0619 0.17295,0.3432 0.38424,0.62518 1.17603,1.56913 1.69726,4.13829 1.23948,6.10955 -0.12504,0.53859 -0.10635,0.60398 0.17222,0.60398 0.17186,0 0.48535,-0.17277 0.69663,-0.38414 z"
       style="fill:url(#linearGradient56);stroke-width:0.608731"
       id="path1-3" /></g></svg>
